<?xml version="1.0" encoding="utf-8"?>
<!-- Generator: Adobe Illustrator 16.0.0, SVG Export Plug-In . SVG Version: 6.00 Build 0)  -->
<!DOCTYPE svg PUBLIC "-//W3C//DTD SVG 1.1//EN" "http://www.w3.org/Graphics/SVG/1.1/DTD/svg11.dtd">
<svg version="1.1" id="Calque_1" xmlns="http://www.w3.org/2000/svg" xmlns:xlink="http://www.w3.org/1999/xlink" x="0px" y="0px"
	 width="878.74px" height="170.08px" viewBox="0 0 878.74 170.08" enable-background="new 0 0 878.74 170.08" xml:space="preserve">
<g>
	<path fill="#FFFFFF" d="M123.865,82.962c1.449-1.618,3.28-2.471,5.496-2.557c2.216-0.083,4.302,0.685,6.263,2.302
		c1.873,1.535,2.983,3.474,3.324,5.814c0.338,2.347-0.171,4.283-1.534,5.817c-5.028,5.624-10.76,9.968-17.192,13.037
		c-6.435,3.069-13.357,4.599-20.771,4.599c-7.075,0-13.74-1.274-20.004-3.834c-6.264-2.555-11.718-6.072-16.361-10.544
		c-4.646-4.471-8.311-9.776-10.995-15.912c-2.685-6.136-4.025-12.74-4.025-19.813c0-7.072,1.341-13.676,4.025-19.813
		c2.684-6.136,6.349-11.441,10.995-15.915c4.643-4.474,10.097-7.989,16.361-10.546c6.264-2.554,12.929-3.834,20.004-3.834
		c7.413,0,14.335,1.535,20.771,4.602c6.433,3.069,12.164,7.416,17.192,13.039c1.363,1.532,1.872,3.474,1.534,5.815
		c-0.341,2.346-1.451,4.283-3.324,5.817c-1.961,1.618-4.047,2.385-6.263,2.299c-2.216-0.083-4.047-0.937-5.496-2.557
		c-1.707-1.618-3.432-3.13-5.177-4.538c-1.748-1.404-3.579-2.64-5.496-3.707c-1.917-1.063-4.006-1.895-6.264-2.49
		s-4.751-0.895-7.477-0.895c-4.519,0-8.737,0.851-12.654,2.554c-3.92,1.707-7.35,4.05-10.289,7.031
		c-2.941,2.984-5.263,6.455-6.967,10.419c-1.706,3.961-2.557,8.203-2.557,12.718c0,4.519,0.851,8.757,2.557,12.718
		c1.704,3.961,4.025,7.435,6.967,10.416c2.939,2.986,6.369,5.327,10.289,7.031c3.917,1.709,8.136,2.557,12.654,2.557
		c2.726,0,5.219-0.293,7.477-0.892s4.347-1.43,6.264-2.496c1.917-1.063,3.748-2.3,5.496-3.707
		C120.433,86.095,122.158,84.583,123.865,82.962z"/>
	<path fill="#FFFFFF" d="M151.221,20.585c0-2.13,0.895-3.939,2.682-5.432c1.789-1.49,3.919-2.238,6.394-2.238
		c2.468,0,4.601,0.748,6.391,2.238c1.79,1.493,2.685,3.302,2.685,5.432v82.574c0,2.133-0.895,3.939-2.685,5.436
		c-1.79,1.484-3.923,2.232-6.391,2.232c-2.474,0-4.604-0.748-6.394-2.232c-1.787-1.496-2.682-3.303-2.682-5.436V20.585z"/>
	<path fill="#FFFFFF" d="M202.86,78.233c0,2.302,0.402,4.433,1.213,6.391c0.809,1.961,1.937,3.688,3.388,5.178
		c1.446,1.49,3.15,2.665,5.111,3.513c1.961,0.853,4.047,1.279,6.264,1.279c2.302,0,4.429-0.427,6.391-1.279
		c1.961-0.848,3.665-2.022,5.114-3.513s2.576-3.217,3.388-5.178c0.809-1.958,1.213-4.089,1.213-6.391V42.442
		c0-2.213,0.895-4.044,2.685-5.496c1.79-1.449,3.92-2.171,6.391-2.171c2.471,0,4.602,0.723,6.391,2.171
		c1.79,1.452,2.684,3.283,2.684,5.496v61.227c0,2.133-0.873,3.856-2.62,5.181c-1.746,1.318-3.771,1.978-6.07,1.978
		c-2.302,0-4.346-0.659-6.136-1.978c-1.789-1.324-2.684-3.048-2.684-5.181v-5.623h-0.255c-1.108,1.706-2.388,3.391-3.836,5.053
		c-1.449,1.656-3.111,3.146-4.984,4.471c-1.875,1.324-3.984,2.383-6.327,3.197c-2.346,0.809-4.964,1.208-7.862,1.208
		c-8.521,0-15.256-2.765-20.195-8.306c-4.945-5.535-7.413-13.25-7.413-23.134V42.442c0-2.213,0.873-4.044,2.618-5.496
		c1.748-1.449,3.856-2.171,6.327-2.171c2.471,0,4.624,0.723,6.458,2.171c1.831,1.452,2.748,3.283,2.748,5.496V78.233z"/>
	<path fill="#FFFFFF" d="M285.813,103.159c0,2.217-0.831,4.05-2.493,5.496s-3.729,2.172-6.2,2.172s-4.538-0.726-6.2-2.172
		s-2.49-3.279-2.49-5.496V20.585c0-2.13,0.895-3.939,2.682-5.432c1.789-1.49,3.92-2.238,6.394-2.238
		c2.468,0,4.602,0.748,6.391,2.238c1.79,1.493,2.685,3.302,2.685,5.432v25.949h0.255c1.277-1.704,2.726-3.344,4.346-4.923
		c1.618-1.576,3.452-2.958,5.496-4.152s4.283-2.13,6.709-2.812c2.43-0.681,5.092-1.025,7.989-1.025
		c5.114,0,9.926,0.981,14.444,2.942c4.515,1.961,8.458,4.688,11.823,8.181c3.366,3.496,6.028,7.626,7.989,12.399
		c1.958,4.773,2.939,9.97,2.939,15.593s-0.98,10.823-2.939,15.593c-1.961,4.773-4.624,8.929-7.989,12.464
		c-3.366,3.534-7.308,6.282-11.823,8.244c-4.518,1.961-9.33,2.937-14.444,2.937c-3.238,0-6.2-0.422-8.884-1.274
		c-2.685-0.854-5.092-1.983-7.222-3.391c-2.13-1.402-3.961-2.959-5.496-4.665c-1.535-1.701-2.77-3.402-3.707-5.108l-0.255,0.127
		V103.159z M286.581,72.737c0,2.984,0.551,5.815,1.659,8.499c1.108,2.685,2.621,5.008,4.541,6.967
		c1.917,1.961,4.172,3.516,6.773,4.665c2.599,1.149,5.433,1.726,8.499,1.726c2.983,0,5.795-0.576,8.438-1.726
		c2.64-1.149,4.942-2.704,6.901-4.665c1.961-1.959,3.493-4.283,4.604-6.967c1.105-2.684,1.66-5.515,1.66-8.499
		c0-2.983-0.554-5.795-1.66-8.435c-1.11-2.643-2.643-4.942-4.604-6.903c-1.959-1.958-4.261-3.516-6.901-4.665
		c-2.643-1.152-5.455-1.726-8.438-1.726c-3.066,0-5.9,0.574-8.499,1.726c-2.601,1.149-4.856,2.707-6.773,4.665
		c-1.92,1.961-3.432,4.261-4.541,6.903C287.132,66.942,286.581,69.753,286.581,72.737z"/>
</g>
<linearGradient id="SVGID_1_" gradientUnits="userSpaceOnUse" x1="336.04" y1="66.8706" x2="336.2041" y2="43.2406">
	<stop  offset="0" style="stop-color:#000000;stop-opacity:0"/>
	<stop  offset="1" style="stop-color:#000000;stop-opacity:0.6"/>
</linearGradient>
<path fill="url(#SVGID_1_)" d="M344.47,54.808c0,0-11.524,4.433-15.247,12.942l-1.504-4.343c0,0,1.238-6.826,13.471-14.45
	C342.498,50.838,343.121,51.592,344.47,54.808z"/>
<g>
	<path fill="#FECE06" d="M466.918,40.633c0.538-0.061,1.036,0.075,1.502,0.407c0.41,0.332,0.665,0.759,0.742,1.28
		c0.089,0.521-0.039,1.008-0.371,1.465l-46.562,61.85c12.898,0.793,26.4-0.72,40.506-4.521c14.106-3.813,27.147-9.147,39.138-16.012
		c9.651-5.573,17.596-11.712,23.835-18.411c0.044-0.042,0.066-0.083,0.066-0.125c6.161-6.618,9.739-13.358,10.737-20.223
		c0.664-4.826-0.311-9.571-2.937-14.23l-0.188-0.313c-5.363-8.529-14.648-14.718-27.835-18.566
		c-13.187-3.851-28.688-5.421-46.495-4.712c-17.979,0.748-36.608,3.787-55.895,9.111c-19.283,5.327-37.561,12.92-54.828,22.779
		c-0.667,0.377-1.374,0.792-2.122,1.25c-15.896,9.987-25.32,19.91-28.276,29.771c-1.288,3.87-1.789,7.51-1.496,10.923
		c0.291,3.33,1.227,6.302,2.809,8.925c2.41,3.992,5.864,6.801,10.36,8.425c0.54,0.21,0.925,0.554,1.152,1.03
		c0.23,0.477,0.261,0.964,0.095,1.463c-0.208,0.543-0.552,0.931-1.031,1.157c-0.477,0.228-0.989,0.261-1.529,0.095
		c-5.408-1.917-9.568-5.285-12.482-10.111v-0.061v0.061c-1.873-3.161-2.995-6.718-3.369-10.674
		c-0.335-3.95,0.249-8.133,1.748-12.543c3.202-10.693,13.189-21.325,29.957-31.893c0.665-0.374,1.394-0.79,2.186-1.25
		c17.558-10.025,36.138-17.757,55.734-23.187c19.599-5.43,38.55-8.519,56.859-9.266c18.516-0.751,34.677,0.967,48.494,5.147
		c13.818,4.183,23.613,10.87,29.398,20.067c0.044,0.083,0.1,0.208,0.188,0.374c3.119,5.494,4.267,11.07,3.436,16.727
		c-1.131,7.74-5.02,15.208-11.68,22.406c-0.038,0.044-0.077,0.085-0.121,0.125c-6.532,6.992-14.793,13.38-24.777,19.161
		c-12.731,7.327-26.6,12.935-41.598,16.824c-15.003,3.889-29.283,5.229-42.846,4.021l-41.068,54.43
		c-0.335,0.454-0.762,0.715-1.28,0.775c-0.521,0.066-1.03-0.056-1.529-0.344c-0.418-0.377-0.667-0.819-0.75-1.341
		c-0.083-0.521,0.042-1.008,0.376-1.462l39.631-52.618c-9.111-1.412-15.968-3.362-20.563-5.834
		c-4.599-2.477-7.521-5.246-8.771-8.305c-1.249-3.056-1.427-6.125-0.529-9.206c0.893-3.078,2.255-5.906,4.086-8.488
		c1.831-2.579,3.538-4.67,5.12-6.271c1.579-1.602,2.432-2.424,2.56-2.466c0.413-0.374,0.892-0.54,1.435-0.499
		c0.54,0.042,0.997,0.271,1.371,0.687c0.377,0.416,0.541,0.884,0.502,1.402c-0.045,0.521-0.271,0.989-0.688,1.404
		c-0.083,0.044-0.792,0.729-2.122,2.061c-1.332,1.333-2.748,3.1-4.244,5.305c-1.499,2.205-2.571,4.609-3.216,7.208
		c-0.646,2.601-0.332,5.171,0.937,7.709c1.269,2.537,4.017,4.837,8.238,6.897c4.225,2.062,10.433,3.629,18.633,4.71l48.055-63.723
		C465.938,40.957,466.381,40.697,466.918,40.633z"/>
	<path fill="#FECE06" d="M539.16,71.122c0.521-0.125,1.03-0.039,1.529,0.249c0.498,0.294,0.803,0.698,0.908,1.219
		c0.1,0.521,0.033,1.03-0.222,1.529l-8.111,13.106c3.036-2.954,5.906-5.702,8.61-8.239c2.703-2.538,4.726-4.264,6.061-5.181
		c0.078-0.042,0.145-0.083,0.184-0.125c2.243-1.374,3.889-1.164,4.931,0.624c0.038,0.044,0.061,0.085,0.061,0.125
		c0.665,1.333,0.997,3.081,0.997,5.244c0.089,1.374,0.222,2.673,0.41,3.9c0.188,1.227,0.57,2.05,1.152,2.465
		c0.914,0.416,2.006,0.427,3.28,0.031c1.263-0.394,2.526-0.967,3.772-1.715c1.247-0.751,2.3-1.435,3.153-2.061
		c0.853-0.624,1.296-0.956,1.341-0.998c0.454-0.333,0.947-0.479,1.468-0.438c0.516,0.042,0.97,0.291,1.341,0.748
		c0.371,0.459,0.532,0.947,0.471,1.468c-0.066,0.521-0.305,0.967-0.72,1.341c-0.083,0.086-0.665,0.51-1.751,1.28
		c-1.075,0.77-2.449,1.604-4.117,2.496c-1.667,0.897-3.401,1.528-5.213,1.905c-1.807,0.374-3.457,0.186-4.959-0.563
		c-1.54-0.958-2.521-2.329-2.931-4.119c-0.421-1.789-0.648-3.621-0.687-5.493c-0.045-1.039-0.111-1.914-0.188-2.621
		c-1.458,1.083-3.579,2.945-6.372,5.585c-2.781,2.643-5.684,5.452-8.703,8.427c-3.015,2.975-5.574,5.534-7.674,7.673
		c-2.105,2.149-3.214,3.28-3.341,3.402c-0.333,0.332-0.726,0.531-1.187,0.598c-0.459,0.062-0.892-0.033-1.313-0.282
		c-0.454-0.332-0.748-0.759-0.875-1.28c-0.122-0.521-0.039-1.008,0.254-1.468l17.226-27.959
		C538.24,71.54,538.639,71.247,539.16,71.122z"/>
	<path fill="#FECE06" d="M566.252,86.976c-0.521,0-0.991-0.188-1.406-0.563c-0.416-0.415-0.633-0.883-0.654-1.404
		c-0.022-0.518,0.155-0.986,0.531-1.404l12.977-13.668c0.421-0.416,0.897-0.624,1.44-0.624s1.019,0.188,1.435,0.563
		c0.371,0.374,0.57,0.812,0.593,1.31c0.022,0.499-0.116,0.958-0.41,1.374c-0.371,0.499-1.379,1.975-3.024,4.43
		c-1.641,2.457-3.369,5.286-5.175,8.488c-1.817,3.206-3.158,6.203-4.034,8.99c-0.869,2.786-0.726,4.765,0.443,5.928
		c1.413,0.92,3.441,0.51,6.084-1.219c2.637-1.723,5.396-3.978,8.266-6.771c2.87-2.786,5.375-5.305,7.491-7.551
		c2.128-2.247,3.247-3.455,3.368-3.621c0.377-0.416,0.826-0.643,1.347-0.687c0.515-0.039,1.009,0.105,1.468,0.438
		c0.41,0.374,0.643,0.834,0.688,1.374c0.039,0.54-0.111,1.02-0.443,1.435c-0.122,0.208-1.391,1.571-3.801,4.089
		c-2.416,2.518-5.308,5.294-8.676,8.33c-3.369,3.042-6.727,5.391-10.051,7.053c-3.33,1.662-6.072,1.751-8.238,0.255
		c-1.834-1.706-2.455-4.178-1.873-7.402c0.582-3.222,1.768-6.646,3.557-10.266l-0.498,0.501
		C567.238,86.769,566.773,86.976,566.252,86.976z M585.034,63.26c-0.521,0.083-1.009-0.042-1.462-0.377
		c-0.461-0.333-0.732-0.759-0.814-1.28c-0.084-0.518,0.038-1.028,0.371-1.529l3.563-4.742c0.332-0.457,0.77-0.726,1.313-0.812
		c0.537-0.083,1.036,0.042,1.496,0.374c0.41,0.335,0.665,0.773,0.748,1.313c0.083,0.541-0.039,1.039-0.371,1.496l-3.502,4.806
		C586.004,62.925,585.555,63.177,585.034,63.26z"/>
	<path fill="#FECE06" d="M593.428,86.663c-0.537-0.039-0.997-0.291-1.368-0.748c-0.333-0.416-0.481-0.895-0.443-1.435
		c0.044-0.54,0.277-1,0.688-1.374l12.487-10.546c0.41-0.335,0.893-0.479,1.43-0.438c0.543,0.042,1.003,0.271,1.374,0.687
		c0.333,0.374,0.499,0.801,0.499,1.28c0,0.477-0.145,0.903-0.433,1.277c-0.294,0.418-1.196,1.74-2.715,3.964
		c-1.518,2.227-3.186,4.829-4.997,7.801c-1.807,2.976-3.324,5.784-4.555,8.427c-1.229,2.644-1.695,4.588-1.407,5.834
		c2.333-0.166,5.674-2.409,10.018-6.736c4.354-4.33,8.532-8.937,12.549-13.827c4.017-4.889,6.71-8.228,8.083-10.017
		c0.167-0.208,0.289-0.374,0.377-0.501c0.831-0.956,1.618-1.443,2.371-1.466c0.743-0.019,1.33,0.177,1.746,0.593
		c0.415,0.416,0.631,0.884,0.653,1.405c0.022,0.521-0.155,1.008-0.526,1.465c-1.297,1.582-2.532,3.621-3.718,6.117
		c-1.186,2.499-1.989,4.848-2.398,7.053c-0.167,1.167-0.149,2.02,0.056,2.56c0.088,0.166,0.354,0.249,0.813,0.249
		c1.834,0,5.469-2.039,10.921-6.117c0.459-0.333,0.958-0.457,1.501-0.374c0.538,0.083,0.976,0.333,1.313,0.748
		c0.332,0.46,0.465,0.958,0.398,1.499c-0.055,0.541-0.321,0.978-0.775,1.311c-6.161,4.618-10.527,6.929-13.108,6.929
		c-2.288,0.083-3.829-0.729-4.621-2.436c-0.62-1.371-0.765-3.036-0.433-4.992c0.122-0.873,0.333-1.79,0.621-2.746
		c-9.069,11.106-16.039,18.109-20.909,21.001c-4.864,2.893-7.779,2.737-8.731-0.465c-0.461-1.873,0.038-4.511,1.495-7.901
		c1.457-3.388,3.247-6.851,5.363-10.388l-2.116,1.809C594.47,86.538,593.966,86.704,593.428,86.663z"/>
	<path fill="#FECE06" d="M634.466,86.976c-0.521,0-0.986-0.188-1.407-0.563c-0.41-0.415-0.632-0.883-0.654-1.404
		c-0.021-0.518,0.156-0.986,0.532-1.404l12.981-13.668c0.416-0.416,0.892-0.624,1.435-0.624s1.02,0.188,1.44,0.563
		c0.371,0.374,0.565,0.812,0.588,1.31c0.021,0.499-0.111,0.958-0.404,1.374c-0.371,0.499-1.38,1.975-3.025,4.43
		c-1.646,2.457-3.374,5.286-5.181,8.488c-1.812,3.206-3.152,6.203-4.027,8.99c-0.87,2.786-0.726,4.765,0.438,5.928
		c1.418,0.92,3.446,0.51,6.083-1.219c2.643-1.723,5.402-3.978,8.272-6.771c2.87-2.786,5.368-5.305,7.49-7.551
		s3.241-3.455,3.368-3.621c0.372-0.416,0.826-0.643,1.347-0.687c0.516-0.039,1.009,0.105,1.463,0.438
		c0.415,0.374,0.643,0.834,0.687,1.374c0.045,0.54-0.104,1.02-0.438,1.435c-0.127,0.208-1.391,1.571-3.807,4.089
		c-2.415,2.518-5.307,5.294-8.676,8.33c-3.368,3.042-6.721,5.391-10.051,7.053c-3.324,1.662-6.072,1.751-8.232,0.255
		c-1.834-1.706-2.46-4.178-1.873-7.402c0.576-3.222,1.768-6.646,3.558-10.266l-0.499,0.501
		C635.452,86.769,634.986,86.976,634.466,86.976z M653.254,63.26c-0.521,0.083-1.015-0.042-1.469-0.377
		c-0.454-0.333-0.731-0.759-0.809-1.28c-0.089-0.518,0.039-1.028,0.371-1.529l3.563-4.742c0.332-0.457,0.765-0.726,1.308-0.812
		c0.543-0.083,1.041,0.042,1.495,0.374c0.416,0.335,0.665,0.773,0.754,1.313c0.078,0.541-0.044,1.039-0.377,1.496l-3.496,4.806
		C654.223,62.925,653.769,63.177,653.254,63.26z"/>
	<path fill="#FECE06" d="M696.009,26.311c0.521-0.125,1.009-0.042,1.463,0.25c0.498,0.291,0.814,0.695,0.941,1.216
		c0.122,0.521,0.033,1.031-0.255,1.529c-1.33,2.164-3.368,5.347-6.116,9.549c-5.657,8.53-12.156,18.973-19.503,31.331
		c-7.346,12.358-12.078,21.907-14.199,28.646c-0.627,2.333-0.704,3.602-0.25,3.813c1.873,0.205,4.826-0.981,8.865-3.558
		c2.703-1.706,5.341-3.546,7.923-5.529c2.581-1.972,5.186-4.252,7.801-6.831c2.626-2.579,4.1-4.036,4.433-4.369
		c0.421-0.374,0.896-0.551,1.439-0.532c0.538,0.022,1.02,0.241,1.43,0.656c0.377,0.416,0.555,0.884,0.532,1.405
		c-0.022,0.521-0.238,0.989-0.653,1.404c-0.377,0.333-1.906,1.82-4.588,4.462c-2.682,2.644-5.357,4.989-8.022,7.051
		c-2.659,2.061-5.386,3.967-8.173,5.712c-4.869,3.164-8.864,4.493-11.983,3.995c-3.125-0.953-3.995-3.846-2.626-8.677
		c2.211-7.03,7.036-16.829,14.482-29.395s14.023-23.156,19.724-31.769c2.826-4.286,4.849-7.427,6.051-9.424
		C695.056,26.746,695.488,26.436,696.009,26.311z"/>
	<path fill="#FECE06" d="M724.808,81.391c0.543,0.02,0.997,0.216,1.374,0.593c0.377,0.416,0.565,0.895,0.565,1.435
		s-0.211,1.02-0.626,1.435c-2,1.956-4.161,3.848-6.488,5.679c-5.828,4.703-12.178,8.466-19.037,11.297
		c-7.451,3.119-13.025,3.058-16.731-0.184c-0.122-0.166-0.267-0.332-0.433-0.504c-0.664-0.87-1.186-1.812-1.563-2.809
		c-1.124-3.535-0.664-7.239,1.375-11.108c1.916-3.66,4.62-6.887,8.11-9.674c2.333-1.831,4.765-3.225,7.303-4.183
		c1.208-0.457,2.332-0.79,3.368-0.997c4.078-0.748,7.059-0.541,8.932,0.623c1.074,0.584,1.911,1.238,2.493,1.967
		c0.581,0.729,0.958,1.363,1.124,1.903c0.084,0.166,0.145,0.335,0.184,0.499c0.543,2.208-0.078,4.225-1.873,6.056
		c-1.496,1.499-4.199,2.976-8.111,4.43c-3.955,1.332-7.335,1.706-10.139,1.125c-2.814-0.582-4.92-1.374-6.338-2.372
		c-0.538,0.79-1.042,1.602-1.496,2.436c-1.496,2.911-1.873,5.551-1.125,7.923c0.211,0.587,0.504,1.146,0.875,1.684
		c0.084,0.045,0.167,0.111,0.25,0.188c2.288,1.962,6.383,1.707,12.294-0.748c6.487-2.664,12.505-6.241,18.034-10.734
		c2.249-1.748,4.332-3.557,6.244-5.429C723.788,81.546,724.265,81.369,724.808,81.391z M690.856,83.419
		c1.086,0.748,2.681,1.311,4.809,1.684c2.116,0.374,4.698,0.022,7.734-1.061c3.33-1.249,5.535-2.413,6.615-3.496
		c0.754-0.707,1.02-1.477,0.814-2.308c-0.083-0.208-0.261-0.468-0.532-0.781s-0.653-0.593-1.152-0.842
		c-1.207-0.79-3.285-0.895-6.244-0.313c-0.875,0.169-1.828,0.438-2.869,0.812c-2.122,0.834-4.178,2.039-6.178,3.621
		C692.773,81.568,691.771,82.46,690.856,83.419z"/>
	<path fill="#FECE06" d="M751.457,85.727c-0.244,0.46-0.521,0.897-0.809,1.313c-0.083,0.124-0.166,0.227-0.25,0.31l-18.909,29.771
		c11.813-0.415,23.984-0.726,36.512-0.937c12.521-0.21,23.226-0.343,32.112-0.404c8.881-0.061,13.778-0.094,14.693-0.094h0.066
		c0.537,0,1.008,0.199,1.401,0.593s0.593,0.881,0.593,1.468c0,0.538-0.199,1.009-0.593,1.402c-0.394,0.393-0.864,0.593-1.401,0.593
		c-0.089,0-4.854,0.021-14.295,0.066c-9.446,0.038-20.743,0.177-33.891,0.398c-13.147,0.232-25.757,0.576-37.824,1.03
		l-16.787,26.406c-0.416,0.62-0.976,0.931-1.685,0.931c-5.33,0-9.884-0.798-13.668-2.399c-3.784-1.601-6.654-3.606-8.615-6.022
		c-1.579-1.994-2.493-4.122-2.748-6.365c-0.244-2.288,0.299-4.493,1.629-6.621c2.493-4.366,8.526-7.175,18.095-8.422
		c5.618-0.587,12.776-1.063,21.475-1.435l12.477-19.597c-2.244,1.579-4.637,2.992-7.175,4.244c-3.784,1.784-7.097,1.95-9.923,0.499
		c-0.748-0.46-1.412-1.02-1.994-1.685c-1.374-1.662-2.039-3.79-2-6.371c0.083-2.369,0.936-4.948,2.56-7.737
		c1.54-2.704,3.95-5.449,7.241-8.239c5.324-3.995,10.256-5.532,14.793-4.618c2.16,0.335,3.989,0.917,5.49,1.748
		c1.535,0.873,2.643,1.831,3.308,2.87l3.247-5.117c0.288-0.457,0.698-0.748,1.219-0.875c0.516-0.125,1.025-0.019,1.529,0.313
		c0.454,0.291,0.742,0.698,0.869,1.216c0.128,0.521,0.039,1.031-0.249,1.529L751.457,85.727z M723.933,121.492
		c-7.363,0.333-13.497,0.748-18.405,1.247c-8.2,1.036-13.253,3.241-15.17,6.615c-0.787,1.291-1.125,2.62-0.997,3.994
		c0.166,1.458,0.809,2.87,1.934,4.244c3.119,4.078,9.114,6.383,17.973,6.926L723.933,121.492z M746.094,79.111
		c-1.125-0.624-2.498-1.061-4.122-1.311c-3.496-0.706-7.386,0.541-11.668,3.746c-2.87,2.454-4.997,4.848-6.371,7.177
		c-1.247,2.205-1.89,4.161-1.929,5.864c-0.044,1.541,0.289,2.748,0.998,3.624c0.287,0.332,0.62,0.599,0.997,0.809
		c1.495,0.754,3.579,0.499,6.238-0.748c4.161-2.038,7.967-4.637,11.425-7.801c2.786-2.413,4.676-4.308,5.679-5.682
		c0.748-1.039,0.937-2.141,0.56-3.308c-0.083-0.332-0.083-0.643,0-0.936C747.612,80.089,747.003,79.61,746.094,79.111z
		 M825.422,119.149c-0.377-0.394-0.543-0.864-0.499-1.402c0.039-0.587,0.244-1.053,0.62-1.407c0.377-0.354,0.854-0.531,1.436-0.531
		l2.688,0.066c0.537,0.038,0.997,0.255,1.373,0.653c0.371,0.399,0.538,0.887,0.499,1.468c-0.044,0.538-0.255,0.998-0.626,1.369
		c-0.371,0.377-0.854,0.543-1.436,0.498l-2.682-0.055C826.253,119.764,825.793,119.542,825.422,119.149z"/>
	<path fill="#FECE06" d="M796.771,81.391c0.538,0.02,0.998,0.216,1.369,0.593c0.377,0.416,0.564,0.895,0.564,1.435
		s-0.21,1.02-0.62,1.435c-2,1.956-4.166,3.848-6.493,5.679c-5.828,4.703-12.172,8.466-19.037,11.297
		c-7.446,3.119-13.02,3.058-16.727-0.184c-0.127-0.166-0.271-0.332-0.438-0.504c-0.665-0.87-1.186-1.812-1.563-2.809
		c-1.119-3.535-0.664-7.239,1.374-11.108c1.917-3.66,4.621-6.887,8.117-9.674c2.332-1.831,4.759-3.225,7.302-4.183
		c1.203-0.457,2.333-0.79,3.369-0.997c4.077-0.748,7.053-0.541,8.926,0.623c1.08,0.584,1.916,1.238,2.492,1.967
		c0.588,0.729,0.965,1.363,1.131,1.903c0.077,0.166,0.145,0.335,0.183,0.499c0.538,2.208-0.083,4.225-1.872,6.056
		c-1.496,1.499-4.205,2.976-8.117,4.43c-3.95,1.332-7.33,1.706-10.139,1.125c-2.81-0.582-4.92-1.374-6.333-2.372
		c-0.537,0.79-1.042,1.602-1.501,2.436c-1.496,2.911-1.873,5.551-1.119,7.923c0.21,0.587,0.498,1.146,0.875,1.684
		c0.077,0.045,0.166,0.111,0.244,0.188c2.293,1.962,6.388,1.707,12.299-0.748c6.488-2.664,12.5-6.241,18.034-10.734
		c2.25-1.748,4.327-3.557,6.244-5.429C795.747,81.546,796.229,81.369,796.771,81.391z M762.814,83.419
		c1.086,0.748,2.688,1.311,4.81,1.684c2.122,0.374,4.698,0.022,7.74-1.061c3.329-1.249,5.534-2.413,6.615-3.496
		c0.747-0.707,1.019-1.477,0.814-2.308c-0.089-0.208-0.267-0.468-0.532-0.781c-0.271-0.313-0.654-0.593-1.152-0.842
		c-1.208-0.79-3.291-0.895-6.244-0.313c-0.875,0.169-1.834,0.438-2.875,0.812c-2.117,0.834-4.178,2.039-6.172,3.621
		C764.732,81.568,763.734,82.46,762.814,83.419z"/>
	<path fill="#FECE06" d="M789.813,94.716c0.521-0.128,1.03-0.039,1.529,0.249c0.46,0.333,0.747,0.76,0.875,1.28
		s0.039,1.024-0.249,1.529c-1.291,2.077-1.685,3.518-1.186,4.305c0.498,0.831,1.563,1.208,3.18,1.125
		c1.994-0.083,3.934-0.814,5.807-2.188c2.87-1.995,3.723-5.342,2.56-10.045c-0.876-3.371-0.604-6.804,0.809-10.3
		c-2.16,2.122-4.022,3.964-5.585,5.523c-1.562,1.563-2.426,2.446-2.592,2.654c-0.455,0.374-0.932,0.563-1.43,0.563
		c-0.499,0-0.98-0.188-1.441-0.563c-0.376-0.457-0.559-0.937-0.559-1.435c0-0.502,0.183-0.979,0.559-1.436
		c0.167-0.166,1.053-1.042,2.654-2.623c1.602-1.579,3.485-3.452,5.646-5.615c2.167-2.164,4.217-4.194,6.15-6.086
		c1.938-1.892,3.357-3.255,4.276-4.089c0-0.042,0.022-0.061,0.062-0.061c1.208-1.166,2.244-1.269,3.119-0.313
		c0.044,0.042,0.105,0.083,0.188,0.125c0.543,0.623,0.721,1.186,0.532,1.684c-0.188,0.501-0.555,1.083-1.092,1.748
		c-0.792,1-1.906,2.56-3.341,4.682c-1.436,2.122-2.632,4.474-3.59,7.053c-0.953,2.579-1.119,4.992-0.499,7.238
		c1.585,6.701,0.271,11.505-3.934,14.419c-2.615,1.956-5.341,2.976-8.172,3.059c-3.208,0.122-5.491-0.958-6.865-3.246
		c-1.208-2.039-0.753-4.826,1.374-8.366C788.889,95.131,789.298,94.844,789.813,94.716z"/>
</g>
<path fill="#FECE06" d="M706.508,47.057c1.302,3.596,3.529,7.003,8.942,10.203c0.471,0.305,0.604,0.873,0.448,1.274
	c-0.205,0.573-0.736,0.97-1.368,0.74c-0.062-0.025-0.177-0.064-0.238-0.086c-5.834-3.479-8.388-7.399-9.796-11.427
	c-0.104-0.235-0.138-0.507-0.077-0.681c0.205-0.574,0.97-0.884,1.485-0.698C706.197,46.486,706.441,46.706,706.508,47.057z"/>
</svg>
