<?xml version="1.0" encoding="utf-8"?>
<!-- Generator: Adobe Illustrator 25.0.0, SVG Export Plug-In . SVG Version: 6.00 Build 0)  -->
<svg version="1.1" id="Calque_1" xmlns="http://www.w3.org/2000/svg" xmlns:xlink="http://www.w3.org/1999/xlink" x="0px" y="0px"
	 viewBox="0 0 632.6 447.6" style="enable-background:new 0 0 632.6 447.6;" xml:space="preserve">
<style type="text/css">
	.st0{display:none;fill:#FFFFFF;}
	.st1{font-family:'Kaleko105RoundW01-Bold';}
	.st2{font-size:60.7468px;}
	.st3{fill:#FFFFFF;}
	.st4{clip-path:url(#SVGID_2_);fill:url(#SVGID_3_);}
	.st5{clip-path:url(#SVGID_2_);fill:#4A348A;}
	.st6{fill:#FFCE05;}
	.st7{display:none;fill:#FFCE05;}
	.st8{font-family:'Presidente';}
</style>
<g>
	<g>
		<text transform="matrix(1.046 0 0 1 120.4465 236.062)" class="st0 st1 st2">Club</text>
		<g>
			<path class="st3" d="M160.4,223.3c0.7-0.8,1.6-1.2,2.7-1.2c1.1,0,2.1,0.3,3.1,1.1c0.9,0.7,1.5,1.7,1.7,2.8c0.2,1.1-0.1,2-0.8,2.8
				c-2.5,2.7-5.3,4.7-8.5,6.2c-3.2,1.5-6.6,2.2-10.3,2.2c-3.5,0-6.8-0.6-9.9-1.8c-3.1-1.2-5.8-2.9-8.1-5c-2.3-2.1-4.1-4.6-5.5-7.6
				c-1.3-2.9-2-6.1-2-9.4c0-3.4,0.7-6.5,2-9.4c1.3-2.9,3.2-5.4,5.5-7.6c2.3-2.1,5-3.8,8.1-5c3.1-1.2,6.4-1.8,9.9-1.8
				c3.7,0,7.1,0.7,10.3,2.2c3.2,1.5,6,3.5,8.5,6.2c0.7,0.7,0.9,1.7,0.8,2.8c-0.2,1.1-0.7,2-1.7,2.8c-1,0.8-2,1.1-3.1,1.1
				c-1.1,0-2-0.4-2.7-1.2c-0.8-0.8-1.7-1.5-2.6-2.2c-0.9-0.7-1.8-1.3-2.7-1.8c-1-0.5-2-0.9-3.1-1.2c-1.1-0.3-2.4-0.4-3.7-0.4
				c-2.2,0-4.3,0.4-6.3,1.2c-1.9,0.8-3.7,1.9-5.1,3.3c-1.5,1.4-2.6,3.1-3.5,5c-0.8,1.9-1.3,3.9-1.3,6c0,2.1,0.4,4.2,1.3,6
				c0.8,1.9,2,3.5,3.5,5c1.5,1.4,3.2,2.5,5.1,3.3c1.9,0.8,4,1.2,6.3,1.2c1.4,0,2.6-0.1,3.7-0.4c1.1-0.3,2.2-0.7,3.1-1.2
				c1-0.5,1.9-1.1,2.7-1.8C158.6,224.8,159.5,224.1,160.4,223.3z"/>
			<path class="st3" d="M173.9,193.7c0-1,0.4-1.9,1.3-2.6c0.9-0.7,1.9-1.1,3.2-1.1c1.2,0,2.3,0.4,3.2,1.1c0.9,0.7,1.3,1.6,1.3,2.6
				v39.2c0,1-0.4,1.9-1.3,2.6c-0.9,0.7-1.9,1.1-3.2,1.1c-1.2,0-2.3-0.4-3.2-1.1c-0.9-0.7-1.3-1.6-1.3-2.6V193.7z"/>
			<path class="st3" d="M199.6,221.1c0,1.1,0.2,2.1,0.6,3c0.4,0.9,1,1.8,1.7,2.5c0.7,0.7,1.6,1.3,2.5,1.7c1,0.4,2,0.6,3.1,0.6
				c1.1,0,2.2-0.2,3.2-0.6c1-0.4,1.8-1,2.5-1.7c0.7-0.7,1.3-1.5,1.7-2.5c0.4-0.9,0.6-1.9,0.6-3v-17c0-1.1,0.4-1.9,1.3-2.6
				c0.9-0.7,1.9-1,3.2-1c1.2,0,2.3,0.3,3.2,1c0.9,0.7,1.3,1.6,1.3,2.6v29.1c0,1-0.4,1.8-1.3,2.5c-0.9,0.6-1.9,0.9-3,0.9
				c-1.1,0-2.2-0.3-3-0.9c-0.9-0.6-1.3-1.4-1.3-2.5v-2.7h-0.1c-0.6,0.8-1.2,1.6-1.9,2.4c-0.7,0.8-1.5,1.5-2.5,2.1
				c-0.9,0.6-2,1.1-3.1,1.5c-1.2,0.4-2.5,0.6-3.9,0.6c-4.2,0-7.6-1.3-10-3.9c-2.5-2.6-3.7-6.3-3.7-11V204c0-1.1,0.4-1.9,1.3-2.6
				c0.9-0.7,1.9-1,3.1-1c1.2,0,2.3,0.3,3.2,1c0.9,0.7,1.4,1.6,1.4,2.6V221.1z"/>
			<path class="st3" d="M240.9,232.9c0,1.1-0.4,1.9-1.2,2.6c-0.8,0.7-1.9,1-3.1,1c-1.2,0-2.3-0.3-3.1-1c-0.8-0.7-1.2-1.6-1.2-2.6
				v-39.2c0-1,0.4-1.9,1.3-2.6c0.9-0.7,1.9-1.1,3.2-1.1c1.2,0,2.3,0.4,3.2,1.1c0.9,0.7,1.3,1.6,1.3,2.6V206h0.1
				c0.6-0.8,1.4-1.6,2.2-2.3c0.8-0.7,1.7-1.4,2.7-2c1-0.6,2.1-1,3.3-1.3c1.2-0.3,2.5-0.5,4-0.5c2.5,0,4.9,0.5,7.2,1.4
				c2.2,0.9,4.2,2.2,5.9,3.9c1.7,1.7,3,3.6,4,5.9c1,2.3,1.5,4.7,1.5,7.4c0,2.7-0.5,5.1-1.5,7.4c-1,2.3-2.3,4.2-4,5.9
				c-1.7,1.7-3.6,3-5.9,3.9c-2.2,0.9-4.6,1.4-7.2,1.4c-1.6,0-3.1-0.2-4.4-0.6c-1.3-0.4-2.5-0.9-3.6-1.6c-1.1-0.7-2-1.4-2.7-2.2
				c-0.8-0.8-1.4-1.6-1.8-2.4l-0.1,0.1V232.9z M241.2,218.4c0,1.4,0.3,2.8,0.8,4c0.5,1.3,1.3,2.4,2.3,3.3c1,0.9,2.1,1.7,3.4,2.2
				c1.3,0.5,2.7,0.8,4.2,0.8c1.5,0,2.9-0.3,4.2-0.8c1.3-0.5,2.5-1.3,3.4-2.2c1-0.9,1.7-2,2.3-3.3c0.5-1.3,0.8-2.6,0.8-4
				c0-1.4-0.3-2.8-0.8-4c-0.6-1.3-1.3-2.3-2.3-3.3c-1-0.9-2.1-1.7-3.4-2.2c-1.3-0.5-2.7-0.8-4.2-0.8c-1.5,0-2.9,0.3-4.2,0.8
				c-1.3,0.5-2.4,1.3-3.4,2.2c-1,0.9-1.7,2-2.3,3.3C241.5,215.7,241.2,217,241.2,218.4z"/>
		</g>
		<g>
			<defs>
				<path id="SVGID_1_" d="M160.4,223.3c0.7-0.8,1.6-1.2,2.7-1.2c1.1,0,2.1,0.3,3.1,1.1c0.9,0.7,1.5,1.7,1.7,2.8
					c0.2,1.1-0.1,2-0.8,2.8c-2.5,2.7-5.3,4.7-8.5,6.2c-3.2,1.5-6.6,2.2-10.3,2.2c-3.5,0-6.8-0.6-9.9-1.8c-3.1-1.2-5.8-2.9-8.1-5
					c-2.3-2.1-4.1-4.6-5.5-7.6c-1.3-2.9-2-6.1-2-9.4c0-3.4,0.7-6.5,2-9.4c1.3-2.9,3.2-5.4,5.5-7.6c2.3-2.1,5-3.8,8.1-5
					c3.1-1.2,6.4-1.8,9.9-1.8c3.7,0,7.1,0.7,10.3,2.2c3.2,1.5,6,3.5,8.5,6.2c0.7,0.7,0.9,1.7,0.8,2.8c-0.2,1.1-0.7,2-1.7,2.8
					c-1,0.8-2,1.1-3.1,1.1c-1.1,0-2-0.4-2.7-1.2c-0.8-0.8-1.7-1.5-2.6-2.2c-0.9-0.7-1.8-1.3-2.7-1.8c-1-0.5-2-0.9-3.1-1.2
					c-1.1-0.3-2.4-0.4-3.7-0.4c-2.2,0-4.3,0.4-6.3,1.2c-1.9,0.8-3.7,1.9-5.1,3.3c-1.5,1.4-2.6,3.1-3.5,5c-0.8,1.9-1.3,3.9-1.3,6
					c0,2.1,0.4,4.2,1.3,6c0.8,1.9,2,3.5,3.5,5c1.5,1.4,3.2,2.5,5.1,3.3c1.9,0.8,4,1.2,6.3,1.2c1.4,0,2.6-0.1,3.7-0.4
					c1.1-0.3,2.2-0.7,3.1-1.2c1-0.5,1.9-1.1,2.7-1.8C158.6,224.8,159.5,224.1,160.4,223.3z M173.9,193.7c0-1,0.4-1.9,1.3-2.6
					c0.9-0.7,1.9-1.1,3.2-1.1c1.2,0,2.3,0.4,3.2,1.1c0.9,0.7,1.3,1.6,1.3,2.6v39.2c0,1-0.4,1.9-1.3,2.6c-0.9,0.7-1.9,1.1-3.2,1.1
					c-1.2,0-2.3-0.4-3.2-1.1c-0.9-0.7-1.3-1.6-1.3-2.6V193.7z M199.6,221.1c0,1.1,0.2,2.1,0.6,3c0.4,0.9,1,1.8,1.7,2.5
					c0.7,0.7,1.6,1.3,2.5,1.7c1,0.4,2,0.6,3.1,0.6c1.1,0,2.2-0.2,3.2-0.6c1-0.4,1.8-1,2.5-1.7c0.7-0.7,1.3-1.5,1.7-2.5
					c0.4-0.9,0.6-1.9,0.6-3v-17c0-1.1,0.4-1.9,1.3-2.6c0.9-0.7,1.9-1,3.2-1c1.2,0,2.3,0.3,3.2,1c0.9,0.7,1.3,1.6,1.3,2.6v29.1
					c0,1-0.4,1.8-1.3,2.5c-0.9,0.6-1.9,0.9-3,0.9c-1.1,0-2.2-0.3-3-0.9c-0.9-0.6-1.3-1.4-1.3-2.5v-2.7h-0.1
					c-0.6,0.8-1.2,1.6-1.9,2.4c-0.7,0.8-1.5,1.5-2.5,2.1c-0.9,0.6-2,1.1-3.1,1.5c-1.2,0.4-2.5,0.6-3.9,0.6c-4.2,0-7.6-1.3-10-3.9
					c-2.5-2.6-3.7-6.3-3.7-11V204c0-1.1,0.4-1.9,1.3-2.6c0.9-0.7,1.9-1,3.1-1c1.2,0,2.3,0.3,3.2,1c0.9,0.7,1.4,1.6,1.4,2.6V221.1z
					 M240.9,232.9c0,1.1-0.4,1.9-1.2,2.6c-0.8,0.7-1.9,1-3.1,1c-1.2,0-2.3-0.3-3.1-1c-0.8-0.7-1.2-1.6-1.2-2.6v-39.2
					c0-1,0.4-1.9,1.3-2.6c0.9-0.7,1.9-1.1,3.2-1.1c1.2,0,2.3,0.4,3.2,1.1c0.9,0.7,1.3,1.6,1.3,2.6V206h0.1c0.6-0.8,1.4-1.6,2.2-2.3
					c0.8-0.7,1.7-1.4,2.7-2c1-0.6,2.1-1,3.3-1.3c1.2-0.3,2.5-0.5,4-0.5c2.5,0,4.9,0.5,7.2,1.4c2.2,0.9,4.2,2.2,5.9,3.9
					c1.7,1.7,3,3.6,4,5.9c1,2.3,1.5,4.7,1.5,7.4c0,2.7-0.5,5.1-1.5,7.4c-1,2.3-2.3,4.2-4,5.9c-1.7,1.7-3.6,3-5.9,3.9
					c-2.2,0.9-4.6,1.4-7.2,1.4c-1.6,0-3.1-0.2-4.4-0.6c-1.3-0.4-2.5-0.9-3.6-1.6c-1.1-0.7-2-1.4-2.7-2.2c-0.8-0.8-1.4-1.6-1.8-2.4
					l-0.1,0.1V232.9z M241.2,218.4c0,1.4,0.3,2.8,0.8,4c0.5,1.3,1.3,2.4,2.3,3.3c1,0.9,2.1,1.7,3.4,2.2c1.3,0.5,2.7,0.8,4.2,0.8
					c1.5,0,2.9-0.3,4.2-0.8c1.3-0.5,2.5-1.3,3.4-2.2c1-0.9,1.7-2,2.3-3.3c0.5-1.3,0.8-2.6,0.8-4c0-1.4-0.3-2.8-0.8-4
					c-0.6-1.3-1.3-2.3-2.3-3.3c-1-0.9-2.1-1.7-3.4-2.2c-1.3-0.5-2.7-0.8-4.2-0.8c-1.5,0-2.9,0.3-4.2,0.8c-1.3,0.5-2.4,1.3-3.4,2.2
					c-1,0.9-1.7,2-2.3,3.3C241.5,215.7,241.2,217,241.2,218.4z"/>
			</defs>
			<use xlink:href="#SVGID_1_"  style="overflow:visible;fill:#4A348A;"/>
			<clipPath id="SVGID_2_">
				<use xlink:href="#SVGID_1_"  style="overflow:visible;"/>
			</clipPath>
			<linearGradient id="SVGID_3_" gradientUnits="userSpaceOnUse" x1="265.4148" y1="206.2615" x2="265.2451" y2="230.5502">
				<stop  offset="0" style="stop-color:#F3F3F3"/>
				<stop  offset="0.6074" style="stop-color:#DEDDDD"/>
				<stop  offset="1" style="stop-color:#C0BEBE"/>
			</linearGradient>
			<path class="st4" d="M271,212c0,0-12.7,9.3-6.8,19.2c0,0,1.2,1.7-0.7,1.5s-10.1-12.2,5.8-24.1c0,0,0.4,0.6,1,1.7S271,212,271,212
				z"/>
			<rect x="71.5" y="83.7" class="st5" width="102.3" height="102.3"/>
		</g>
		<g>
			<path class="st6" d="M330.9,203.2c0.3,0,0.5,0,0.7,0.2c0.2,0.2,0.3,0.4,0.4,0.6c0,0.2,0,0.5-0.2,0.7l-23.1,29.4
				c6.4,0.4,13.1-0.3,20.1-2.2c7-1.8,13.5-4.3,19.5-7.6c4.8-2.7,8.7-5.6,11.9-8.8c0,0,0,0,0-0.1c3.1-3.1,4.8-6.3,5.3-9.6
				c0.3-2.3-0.2-4.5-1.5-6.8l-0.1-0.1c-2.7-4.1-7.3-7-13.8-8.8c-6.6-1.8-14.3-2.6-23.1-2.2c-8.9,0.4-18.2,1.8-27.8,4.3
				s-18.7,6.1-27.3,10.8c-0.3,0.2-0.7,0.4-1.1,0.6c-7.9,4.7-12.6,9.5-14.1,14.1c-0.6,1.8-0.9,3.6-0.7,5.2c0.1,1.6,0.6,3,1.4,4.2
				c1.2,1.9,2.9,3.2,5.2,4c0.3,0.1,0.5,0.3,0.6,0.5c0.1,0.2,0.1,0.5,0,0.7c-0.1,0.3-0.3,0.4-0.5,0.5c-0.2,0.1-0.5,0.1-0.8,0
				c-2.7-0.9-4.8-2.5-6.2-4.8v0v0c-0.9-1.5-1.5-3.2-1.7-5.1c-0.2-1.9,0.1-3.9,0.9-6c1.6-5.1,6.6-10.1,14.9-15.2
				c0.3-0.2,0.7-0.4,1.1-0.6c8.7-4.8,18-8.4,27.7-11c9.7-2.6,19.2-4,28.3-4.4c9.2-0.4,17.2,0.5,24.1,2.4c6.9,2,11.7,5.2,14.6,9.5
				c0,0,0.1,0.1,0.1,0.2c1.6,2.6,2.1,5.3,1.7,7.9c-0.6,3.7-2.5,7.2-5.8,10.6c0,0,0,0-0.1,0.1c-3.2,3.3-7.4,6.4-12.3,9.1
				c-6.3,3.5-13.2,6.1-20.7,8c-7.5,1.8-14.6,2.5-21.3,1.9l-20.4,25.9c-0.2,0.2-0.4,0.3-0.6,0.4c-0.3,0-0.5,0-0.8-0.2
				c-0.2-0.2-0.3-0.4-0.4-0.6c0-0.2,0-0.5,0.2-0.7l19.7-25c-4.5-0.7-7.9-1.6-10.2-2.8c-2.3-1.2-3.7-2.5-4.4-3.9
				c-0.6-1.5-0.7-2.9-0.3-4.4c0.4-1.5,1.1-2.8,2-4c0.9-1.2,1.8-2.2,2.5-3c0.8-0.8,1.2-1.2,1.3-1.2c0.2-0.2,0.4-0.3,0.7-0.2
				c0.3,0,0.5,0.1,0.7,0.3c0.2,0.2,0.3,0.4,0.2,0.7c0,0.2-0.1,0.5-0.3,0.7c0,0-0.4,0.3-1.1,1c-0.7,0.6-1.4,1.5-2.1,2.5
				c-0.7,1-1.3,2.2-1.6,3.4c-0.3,1.2-0.2,2.5,0.5,3.7c0.6,1.2,2,2.3,4.1,3.3c2.1,1,5.2,1.7,9.3,2.2l23.9-30.3
				C330.4,203.3,330.6,203.2,330.9,203.2z"/>
			<path class="st6" d="M366.8,217.7c0.3-0.1,0.5,0,0.8,0.1c0.2,0.1,0.4,0.3,0.5,0.6c0.1,0.2,0,0.5-0.1,0.7l-4,6.2
				c1.5-1.4,2.9-2.7,4.3-3.9c1.3-1.2,2.3-2,3-2.5c0,0,0.1,0,0.1-0.1c1.1-0.7,1.9-0.6,2.5,0.3c0,0,0,0,0,0.1c0.3,0.6,0.5,1.5,0.5,2.5
				c0,0.7,0.1,1.3,0.2,1.9s0.3,1,0.6,1.2c0.5,0.2,1,0.2,1.6,0c0.6-0.2,1.3-0.5,1.9-0.8c0.6-0.4,1.1-0.7,1.6-1
				c0.4-0.3,0.6-0.5,0.7-0.5c0.2-0.2,0.5-0.2,0.7-0.2c0.3,0,0.5,0.1,0.7,0.4c0.2,0.2,0.3,0.5,0.2,0.7c0,0.2-0.2,0.5-0.4,0.6
				c0,0-0.3,0.2-0.9,0.6c-0.5,0.4-1.2,0.8-2,1.2c-0.8,0.4-1.7,0.7-2.6,0.9c-0.9,0.2-1.7,0.1-2.5-0.3c-0.8-0.5-1.3-1.1-1.5-2
				c-0.2-0.8-0.3-1.7-0.3-2.6c0-0.5-0.1-0.9-0.1-1.2c-0.7,0.5-1.8,1.4-3.2,2.7c-1.4,1.3-2.8,2.6-4.3,4c-1.5,1.4-2.8,2.6-3.8,3.6
				c-1,1-1.6,1.6-1.7,1.6c-0.2,0.2-0.4,0.3-0.6,0.3c-0.2,0-0.4,0-0.7-0.1c-0.2-0.2-0.4-0.4-0.4-0.6c-0.1-0.2,0-0.5,0.1-0.7l8.6-13.3
				C366.3,217.9,366.5,217.7,366.8,217.7z"/>
			<path class="st6" d="M380.3,225.2c-0.3,0-0.5-0.1-0.7-0.3c-0.2-0.2-0.3-0.4-0.3-0.7c0-0.2,0.1-0.5,0.3-0.7l6.5-6.5
				c0.2-0.2,0.4-0.3,0.7-0.3c0.3,0,0.5,0.1,0.7,0.3c0.2,0.2,0.3,0.4,0.3,0.6c0,0.2-0.1,0.5-0.2,0.7c-0.2,0.2-0.7,0.9-1.5,2.1
				c-0.8,1.2-1.7,2.5-2.6,4c-0.9,1.5-1.6,2.9-2,4.3c-0.4,1.3-0.4,2.3,0.2,2.8c0.7,0.4,1.7,0.2,3-0.6c1.3-0.8,2.7-1.9,4.1-3.2
				c1.4-1.3,2.7-2.5,3.7-3.6c1.1-1.1,1.6-1.6,1.7-1.7c0.2-0.2,0.4-0.3,0.7-0.3c0.3,0,0.5,0,0.7,0.2c0.2,0.2,0.3,0.4,0.3,0.7
				c0,0.3-0.1,0.5-0.2,0.7c-0.1,0.1-0.7,0.7-1.9,1.9c-1.2,1.2-2.6,2.5-4.3,4c-1.7,1.4-3.3,2.6-5,3.4c-1.7,0.8-3,0.8-4.1,0.1
				c-0.9-0.8-1.2-2-0.9-3.5c0.3-1.5,0.9-3.2,1.8-4.9l-0.2,0.2C380.7,225.1,380.5,225.2,380.3,225.2z M389.6,213.9
				c-0.3,0-0.5,0-0.7-0.2c-0.2-0.2-0.4-0.4-0.4-0.6c0-0.2,0-0.5,0.2-0.7l1.8-2.3c0.2-0.2,0.4-0.3,0.7-0.4c0.3,0,0.5,0,0.7,0.2
				c0.2,0.2,0.3,0.4,0.4,0.6c0,0.3,0,0.5-0.2,0.7l-1.7,2.3C390.1,213.8,389.9,213.9,389.6,213.9z"/>
			<path class="st6" d="M393.8,225.1c-0.3,0-0.5-0.1-0.7-0.4c-0.2-0.2-0.2-0.4-0.2-0.7c0-0.3,0.1-0.5,0.3-0.7l6.2-5
				c0.2-0.2,0.4-0.2,0.7-0.2c0.3,0,0.5,0.1,0.7,0.3c0.2,0.2,0.2,0.4,0.2,0.6c0,0.2-0.1,0.4-0.2,0.6c-0.1,0.2-0.6,0.8-1.3,1.9
				c-0.8,1.1-1.6,2.3-2.5,3.7c-0.9,1.4-1.7,2.7-2.3,4c-0.6,1.3-0.8,2.2-0.7,2.8c1.2-0.1,2.8-1.1,5-3.2c2.2-2.1,4.2-4.2,6.2-6.6
				c2-2.3,3.3-3.9,4-4.8c0.1-0.1,0.1-0.2,0.2-0.2c0.4-0.5,0.8-0.7,1.2-0.7c0.4,0,0.7,0.1,0.9,0.3c0.2,0.2,0.3,0.4,0.3,0.7
				c0,0.2-0.1,0.5-0.3,0.7c-0.6,0.8-1.3,1.7-1.8,2.9c-0.6,1.2-1,2.3-1.2,3.4c-0.1,0.6-0.1,1,0,1.2c0,0.1,0.2,0.1,0.4,0.1
				c0.9,0,2.7-1,5.4-2.9c0.2-0.2,0.5-0.2,0.7-0.2c0.3,0,0.5,0.2,0.7,0.4c0.2,0.2,0.2,0.5,0.2,0.7c0,0.3-0.2,0.5-0.4,0.6
				c-3.1,2.2-5.2,3.3-6.5,3.3c-1.1,0-1.9-0.3-2.3-1.2c-0.3-0.7-0.4-1.4-0.2-2.4c0.1-0.4,0.2-0.8,0.3-1.3c-4.5,5.3-8,8.6-10.4,10
				c-2.4,1.4-3.9,1.3-4.3-0.2c-0.2-0.9,0-2.1,0.7-3.8c0.7-1.6,1.6-3.3,2.7-4.9l-1.1,0.9C394.3,225,394,225.1,393.8,225.1z"/>
			<path class="st6" d="M414.2,225.2c-0.3,0-0.5-0.1-0.7-0.3c-0.2-0.2-0.3-0.4-0.3-0.7c0-0.2,0.1-0.5,0.3-0.7l6.5-6.5
				c0.2-0.2,0.4-0.3,0.7-0.3c0.3,0,0.5,0.1,0.7,0.3c0.2,0.2,0.3,0.4,0.3,0.6c0,0.2-0.1,0.5-0.2,0.7c-0.2,0.2-0.7,0.9-1.5,2.1
				c-0.8,1.2-1.7,2.5-2.6,4c-0.9,1.5-1.6,2.9-2,4.3c-0.4,1.3-0.4,2.3,0.2,2.8c0.7,0.4,1.7,0.2,3-0.6c1.3-0.8,2.7-1.9,4.1-3.2
				c1.4-1.3,2.7-2.5,3.7-3.6c1.1-1.1,1.6-1.6,1.7-1.7c0.2-0.2,0.4-0.3,0.7-0.3c0.3,0,0.5,0,0.7,0.2c0.2,0.2,0.3,0.4,0.3,0.7
				c0,0.3-0.1,0.5-0.2,0.7c-0.1,0.1-0.7,0.7-1.9,1.9c-1.2,1.2-2.6,2.5-4.3,4c-1.7,1.4-3.3,2.6-5,3.4c-1.7,0.8-3,0.8-4.1,0.1
				c-0.9-0.8-1.2-2-0.9-3.5c0.3-1.5,0.9-3.2,1.8-4.9l-0.2,0.2C414.7,225.1,414.4,225.2,414.2,225.2z M423.5,213.9
				c-0.3,0-0.5,0-0.7-0.2c-0.2-0.2-0.4-0.4-0.4-0.6c0-0.2,0-0.5,0.2-0.7l1.8-2.3c0.2-0.2,0.4-0.3,0.7-0.4c0.3,0,0.5,0,0.7,0.2
				c0.2,0.2,0.3,0.4,0.4,0.6c0,0.3,0,0.5-0.2,0.7l-1.7,2.3C424,213.8,423.8,213.9,423.5,213.9z"/>
			<path class="st6" d="M444.8,196.4c0.3-0.1,0.5,0,0.7,0.1c0.2,0.1,0.4,0.3,0.5,0.6c0.1,0.2,0,0.5-0.1,0.7c-0.7,1-1.7,2.5-3,4.5
				c-2.8,4.1-6,9-9.7,14.9c-3.7,5.9-6,10.4-7.1,13.6c-0.3,1.1-0.4,1.7-0.1,1.8c0.9,0.1,2.4-0.5,4.4-1.7c1.3-0.8,2.7-1.7,3.9-2.6
				c1.3-0.9,2.6-2,3.9-3.2c1.3-1.2,2-1.9,2.2-2.1c0.2-0.2,0.4-0.3,0.7-0.3c0.3,0,0.5,0.1,0.7,0.3c0.2,0.2,0.3,0.4,0.3,0.7
				c0,0.2-0.1,0.5-0.3,0.7c-0.2,0.2-0.9,0.9-2.3,2.1c-1.3,1.3-2.7,2.4-4,3.4c-1.3,1-2.7,1.9-4.1,2.7c-2.4,1.5-4.4,2.1-6,1.9
				c-1.6-0.5-2-1.8-1.3-4.1c1.1-3.3,3.5-8,7.2-14c3.7-6,7-11,9.8-15.1c1.4-2,2.4-3.5,3-4.5C444.3,196.6,444.5,196.4,444.8,196.4z"/>
			<path class="st6" d="M459.1,222.6c0.3,0,0.5,0.1,0.7,0.3c0.2,0.2,0.3,0.4,0.3,0.7c0,0.3-0.1,0.5-0.3,0.7c-1,0.9-2.1,1.8-3.2,2.7
				c-2.9,2.2-6,4-9.5,5.4c-3.7,1.5-6.5,1.5-8.3-0.1c-0.1-0.1-0.1-0.2-0.2-0.2c-0.3-0.4-0.6-0.9-0.8-1.3c-0.6-1.7-0.3-3.4,0.7-5.3
				c1-1.7,2.3-3.3,4-4.6c1.2-0.9,2.4-1.5,3.6-2c0.6-0.2,1.2-0.4,1.7-0.5c2-0.4,3.5-0.3,4.4,0.3c0.5,0.3,1,0.6,1.2,0.9
				c0.3,0.3,0.5,0.6,0.6,0.9c0,0.1,0.1,0.2,0.1,0.2c0.3,1,0,2-0.9,2.9c-0.7,0.7-2.1,1.4-4,2.1c-2,0.6-3.6,0.8-5,0.5
				c-1.4-0.3-2.4-0.7-3.1-1.1c-0.3,0.4-0.5,0.8-0.7,1.2c-0.7,1.4-0.9,2.6-0.6,3.8c0.1,0.3,0.2,0.5,0.4,0.8c0,0,0.1,0,0.1,0.1
				c1.1,0.9,3.2,0.8,6.1-0.4c3.2-1.3,6.2-3,9-5.1c1.1-0.8,2.2-1.7,3.1-2.6C458.6,222.6,458.8,222.5,459.1,222.6z M442.2,223.5
				c0.5,0.4,1.3,0.6,2.4,0.8c1.1,0.2,2.3,0,3.8-0.5c1.7-0.6,2.7-1.1,3.3-1.7c0.4-0.3,0.5-0.7,0.4-1.1c0-0.1-0.1-0.2-0.3-0.4
				c-0.1-0.1-0.3-0.3-0.6-0.4c-0.6-0.4-1.6-0.4-3.1-0.1c-0.4,0.1-0.9,0.2-1.4,0.4c-1.1,0.4-2.1,1-3.1,1.7
				C443.2,222.6,442.7,223.1,442.2,223.5z"/>
			<path class="st6" d="M472.3,224.6c-0.1,0.2-0.3,0.4-0.4,0.6c0,0.1-0.1,0.1-0.1,0.1l-9.4,14.1c5.9-0.2,11.9-0.3,18.1-0.4
				c6.2-0.1,11.5-0.2,16-0.2c4.4,0,6.9,0,7.3,0h0c0.3,0,0.5,0.1,0.7,0.3s0.3,0.4,0.3,0.7c0,0.3-0.1,0.5-0.3,0.7s-0.4,0.3-0.7,0.3
				c0,0-2.4,0-7.1,0c-4.7,0-10.3,0.1-16.8,0.2c-6.5,0.1-12.8,0.3-18.8,0.5l-8.3,12.5c-0.2,0.3-0.5,0.4-0.8,0.4
				c-2.6,0-4.9-0.4-6.8-1.1c-1.9-0.8-3.3-1.7-4.3-2.9c-0.8-0.9-1.2-2-1.4-3c-0.1-1.1,0.1-2.1,0.8-3.1c1.2-2.1,4.2-3.4,9-4
				c2.8-0.3,6.3-0.5,10.7-0.7l6.2-9.3c-1.1,0.8-2.3,1.4-3.6,2c-1.9,0.9-3.5,0.9-4.9,0.2c-0.4-0.2-0.7-0.5-1-0.8c-0.7-0.8-1-1.8-1-3
				c0-1.1,0.5-2.4,1.3-3.7c0.8-1.3,2-2.6,3.6-3.9c2.6-1.9,5.1-2.6,7.4-2.2c1.1,0.2,2,0.4,2.7,0.8c0.8,0.4,1.3,0.9,1.6,1.4l1.6-2.4
				c0.1-0.2,0.3-0.4,0.6-0.4c0.3-0.1,0.5,0,0.8,0.1c0.2,0.1,0.4,0.3,0.4,0.6c0.1,0.2,0,0.5-0.1,0.7L472.3,224.6z M458.6,241.6
				c-3.7,0.2-6.7,0.4-9.2,0.6c-4.1,0.5-6.6,1.5-7.5,3.1c-0.4,0.6-0.6,1.2-0.5,1.9c0.1,0.7,0.4,1.4,1,2c1.6,1.9,4.5,3,8.9,3.3
				L458.6,241.6z M469.7,221.5c-0.6-0.3-1.2-0.5-2-0.6c-1.7-0.3-3.7,0.3-5.8,1.8c-1.4,1.2-2.5,2.3-3.2,3.4c-0.6,1-0.9,2-1,2.8
				c0,0.7,0.1,1.3,0.5,1.7c0.1,0.2,0.3,0.3,0.5,0.4c0.7,0.4,1.8,0.2,3.1-0.4c2.1-1,4-2.2,5.7-3.7c1.4-1.1,2.3-2,2.8-2.7
				c0.4-0.5,0.5-1,0.3-1.6c0-0.2,0-0.3,0-0.4C470.4,221.9,470.1,221.7,469.7,221.5z M509.1,240.5c-0.2-0.2-0.3-0.4-0.2-0.7
				c0-0.3,0.1-0.5,0.3-0.7c0.2-0.2,0.4-0.3,0.7-0.3l1.3,0c0.3,0,0.5,0.1,0.7,0.3c0.2,0.2,0.3,0.4,0.2,0.7c0,0.3-0.1,0.5-0.3,0.7
				c-0.2,0.2-0.4,0.3-0.7,0.2l-1.3,0C509.5,240.8,509.3,240.7,509.1,240.5z"/>
			<path class="st6" d="M494.9,222.6c0.3,0,0.5,0.1,0.7,0.3c0.2,0.2,0.3,0.4,0.3,0.7c0,0.3-0.1,0.5-0.3,0.7c-1,0.9-2.1,1.8-3.2,2.7
				c-2.9,2.2-6,4-9.5,5.4c-3.7,1.5-6.5,1.5-8.3-0.1c-0.1-0.1-0.1-0.2-0.2-0.2c-0.3-0.4-0.6-0.9-0.8-1.3c-0.6-1.7-0.3-3.4,0.7-5.3
				c1-1.7,2.3-3.3,4-4.6c1.2-0.9,2.4-1.5,3.6-2c0.6-0.2,1.2-0.4,1.7-0.5c2-0.4,3.5-0.3,4.4,0.3c0.5,0.3,1,0.6,1.2,0.9
				c0.3,0.3,0.5,0.6,0.6,0.9c0,0.1,0.1,0.2,0.1,0.2c0.3,1,0,2-0.9,2.9c-0.7,0.7-2.1,1.4-4,2.1c-2,0.6-3.6,0.8-5,0.5
				c-1.4-0.3-2.4-0.7-3.1-1.1c-0.3,0.4-0.5,0.8-0.7,1.2c-0.7,1.4-0.9,2.6-0.6,3.8c0.1,0.3,0.2,0.5,0.4,0.8c0,0,0.1,0,0.1,0.1
				c1.1,0.9,3.2,0.8,6.1-0.4c3.2-1.3,6.2-3,9-5.1c1.1-0.8,2.2-1.7,3.1-2.6C494.3,222.6,494.6,222.5,494.9,222.6z M478,223.5
				c0.5,0.4,1.3,0.6,2.4,0.8c1.1,0.2,2.3,0,3.8-0.5c1.7-0.6,2.7-1.1,3.3-1.7c0.4-0.3,0.5-0.7,0.4-1.1c0-0.1-0.1-0.2-0.3-0.4
				c-0.1-0.1-0.3-0.3-0.6-0.4c-0.6-0.4-1.6-0.4-3.1-0.1c-0.4,0.1-0.9,0.2-1.4,0.4c-1.1,0.4-2.1,1-3.1,1.7
				C478.9,222.6,478.4,223.1,478,223.5z"/>
		</g>
		<text transform="matrix(1.046 0 0 1 253.8127 238.4727)" class="st7 st8 st2">Privilege</text>
		<path class="st6" d="M450,206.2c0.6,1.7,1.8,3.3,4.4,4.8c0.2,0.1,0.3,0.4,0.2,0.6c-0.1,0.3-0.4,0.5-0.7,0.4c0,0-0.1,0-0.1,0
			c-2.9-1.7-4.2-3.5-4.9-5.4c-0.1-0.1-0.1-0.2,0-0.3c0.1-0.3,0.5-0.4,0.7-0.3C449.8,206,449.9,206.1,450,206.2z"/>
	</g>
	<g>
		<path class="st6" d="M494.8,222.5c0.3,0,0.5,0.1,0.7,0.3c0.2,0.2,0.3,0.4,0.3,0.7c0,0.3-0.1,0.5-0.3,0.7c-1,0.9-2.1,1.8-3.2,2.7
			c-2.9,2.3-6,4.1-9.4,5.4c-3.7,1.5-6.4,1.5-8.3-0.1c-0.1-0.1-0.1-0.2-0.2-0.2c-0.3-0.4-0.6-0.9-0.8-1.3c-0.6-1.7-0.3-3.5,0.7-5.3
			c0.9-1.8,2.3-3.3,4-4.6c1.2-0.9,2.4-1.5,3.6-2c0.6-0.2,1.2-0.4,1.7-0.5c2-0.4,3.5-0.3,4.4,0.3c0.5,0.3,0.9,0.6,1.2,0.9
			c0.3,0.3,0.5,0.7,0.6,0.9c0,0.1,0.1,0.2,0.1,0.2c0.3,1.1,0,2-0.9,2.9c-0.7,0.7-2.1,1.4-4,2.1c-2,0.6-3.6,0.8-5,0.5
			c-1.4-0.3-2.4-0.7-3.1-1.1c-0.3,0.4-0.5,0.8-0.7,1.2c-0.7,1.4-0.9,2.7-0.6,3.8c0.1,0.3,0.2,0.6,0.4,0.8c0,0,0.1,0.1,0.1,0.1
			c1.1,0.9,3.2,0.8,6.1-0.4c3.2-1.3,6.2-3,8.9-5.2c1.1-0.8,2.1-1.7,3.1-2.6C494.3,222.6,494.6,222.5,494.8,222.5z M478.1,223.5
			c0.5,0.4,1.3,0.6,2.4,0.8s2.3,0,3.8-0.5c1.6-0.6,2.7-1.2,3.3-1.7c0.4-0.3,0.5-0.7,0.4-1.1c0-0.1-0.1-0.2-0.3-0.4
			c-0.1-0.1-0.3-0.3-0.6-0.4c-0.6-0.4-1.6-0.4-3.1-0.1c-0.4,0.1-0.9,0.2-1.4,0.4c-1,0.4-2.1,1-3.1,1.7
			C479,222.6,478.5,223,478.1,223.5z"/>
		<path class="st6" d="M491.4,228.9c0.3-0.1,0.5,0,0.8,0.1c0.2,0.2,0.4,0.4,0.4,0.6c0.1,0.3,0,0.5-0.1,0.7c-0.6,1-0.8,1.7-0.6,2.1
			c0.2,0.4,0.8,0.6,1.6,0.5c1,0,1.9-0.4,2.9-1c1.4-1,1.8-2.6,1.3-4.8c-0.4-1.6-0.3-3.3,0.4-4.9c-1.1,1-2,1.9-2.8,2.7
			c-0.8,0.7-1.2,1.2-1.3,1.3c-0.2,0.2-0.5,0.3-0.7,0.3s-0.5-0.1-0.7-0.3c-0.2-0.2-0.3-0.4-0.3-0.7c0-0.2,0.1-0.5,0.3-0.7
			c0.1-0.1,0.5-0.5,1.3-1.3c0.8-0.8,1.7-1.7,2.8-2.7c1.1-1,2.1-2,3-2.9c1-0.9,1.7-1.6,2.1-2c0,0,0,0,0,0c0.6-0.6,1.1-0.6,1.5-0.1
			c0,0,0.1,0,0.1,0.1c0.3,0.3,0.4,0.6,0.3,0.8c-0.1,0.2-0.3,0.5-0.5,0.8c-0.4,0.5-0.9,1.2-1.6,2.2c-0.7,1-1.3,2.1-1.8,3.4
			c-0.5,1.2-0.6,2.4-0.2,3.5c0.8,3.2,0.1,5.5-1.9,6.9c-1.3,0.9-2.6,1.4-4,1.5c-1.6,0.1-2.7-0.5-3.4-1.6c-0.6-1-0.4-2.3,0.7-4
			C490.9,229.1,491.1,229,491.4,228.9z"/>
	</g>
</g>
</svg>
